# xmcd CD database file
#
# Track frame offsets:
#	150
#	16851
#	31071
#	46483
#	64116
#	79404
#	90466
#	101586
#	112776
#	126145
#
# Disc length: 1846 seconds
#
# Revision: 0
# Processed by: cddbd v1.5.1PL0 Copyright (c) Steve Scherf et al.
# Submitted via: CDex 1.51
#
DISCID=7107340a
DTITLE=Hank Karr - Paddlerwheeler and other Nothern Ballads
DYEAR=2004
DGENRE=Country
TTITLE0=Paddlewheeler
TTITLE1=Blow Northwind Blow
TTITLE2=Echo of the Yukon
TTITLE3=Yukon Book of Memories
TTITLE4=Phantom of the Arctic
TTITLE5=Buckets of Steel
TTITLE6=98' Trail
TTITLE7=Nortland
TTITLE8=Yukon Gold
TTITLE9=The Keebird Song
EXTD=YEAR: 2004
EXTT0=
EXTT1=
EXTT2=
EXTT3=
EXTT4=
EXTT5=
EXTT6=
EXTT7=
EXTT8=
EXTT9=
PLAYORDER=
